#!Matlab matrix to amc conversion
:FULLY-SPECIFIED
:DEGREES
1
root 9.287220 16.950000 -34.276200 0.000000 0.000000 0.000000
lowerback 0.000000 0.000000 0.000000
upperback 0.000000 0.000000 0.000000
thorax 0.000000 0.000000 0.000000
lowerneck -16.000000 0.000000 0.000000
upperneck 21.000000 0.000000 0.000000
head 11.000000 0.000000 0.000000
rclavicle 0.000000 0.000000
rhumerus 0.000000 0.000000 0.000000
rradius 0.000000
rwrist 0.000000
rhand 0.000000 0.000000
rfingers 0.000000
rthumb 0.000000 0.000000
lclavicle 0.000000 0.000000
lhumerus 0.000000 0.000000 0.000000
lradius 0.000000
lwrist 0.000000
lhand 0.000000 0.000000
lfingers 0.000000
lthumb 0.000000 0.000000
rfemur 0.000000 0.000000 21.000000
rtibia 0.000000
rfoot 0.000000 0.000000
rtoes 0.000000
lfemur 0.000000 0.000000 -21.000000
ltibia 0.000000
lfoot 0.000000 0.000000
ltoes 0.000000
2
root 9.287220 16.950000 -34.276200 1.592280 1.634016 -0.031412
lowerback -2.999510 2.042659 4.496257
upperback -3.759427 2.754271 2.361300
thorax -2.082491 1.295003 -0.209688
lowerneck -17.462790 1.152459 2.087826
upperneck 39.711841 2.785384 -3.968553
head 18.275557 0.950396 -1.734803
rclavicle -0.000000 0.000000
rhumerus -38.416500 -11.519235 -72.813135
rradius 27.811835
rwrist -10.149608
rhand -5.760113 11.452372
rfingers 7.125020
rthumb 20.070777 -17.446909
lclavicle -0.000000 0.000000
lhumerus -58.854223 33.033878 52.384048
lradius 21.339364
lwrist -14.631365
lhand 1.705389 21.114244
lfingers 7.125020
lthumb 27.204925 48.975846
rfemur -19.626869 14.673538 26.735388
rtibia 28.412538
rfoot -21.227543 -18.025493
rtoes -6.605604
lfemur -32.625218 2.991639 -19.651140
ltibia 58.223723
lfoot -16.965897 15.853306
ltoes -12.446133
3
root 9.273270 17.016600 -33.905900 1.353517 1.634016 -0.078617
lowerback -2.667424 2.174587 4.132148
upperback -3.482338 2.948980 2.185966
thorax -1.983363 1.401911 -0.190188
lowerneck -17.350878 1.070325 1.959637
upperneck 39.411182 2.714672 -3.985094
head 18.055050 0.900722 -1.722454
rclavicle -0.000000 0.000000
rhumerus -37.353845 -11.212925 -72.815551
rradius 28.973912
rwrist -11.536902
rhand -6.033402 11.731597
rfingers 7.125020
rthumb 19.805597 -17.192861
lclavicle -0.000000 0.000000
lhumerus -59.258107 33.476123 51.628780
lradius 21.211901
lwrist -14.970432
lhand 1.773374 20.868825
lfingers 7.125020
lthumb 27.269425 48.727078
rfemur -16.304214 14.578090 27.046686
rtibia 26.401079
rfoot -20.442239 -18.751327
rtoes -5.106363
lfemur -34.106879 1.607293 -19.365577
ltibia 52.068258
lfoot -17.808789 16.175861
ltoes -13.750919
4
root 9.268420 17.025800 -33.555600 1.207080 1.634016 -0.094889
lowerback -2.341566 2.285640 3.908179
upperback -3.213172 3.105325 2.033441
thorax -1.887303 1.488276 -0.171349
lowerneck -17.244963 0.990588 1.835301
upperneck 39.109507 2.646534 -3.993454
head 17.835482 0.852456 -1.706535
rclavicle -0.000000 0.000000
rhumerus -36.361587 -10.939850 -72.809997
rradius 29.945598
rwrist -12.756585
rhand -6.309610 11.923281
rfingers 7.125020
rthumb 19.537708 -17.027084
lclavicle -0.000000 0.000000
lhumerus -59.556965 33.883769 50.953128
lradius 21.124386
lwrist -15.178143
lhand 1.820437 20.650556
lfingers 7.125020
lthumb 27.313891 48.507750
rfemur -13.097799 14.461937 27.349078
rtibia 24.826040
rfoot -19.730185 -19.430235
rtoes -3.994134
lfemur -35.258453 0.399233 -19.067470
ltibia 46.553930
lfoot -18.357555 16.412748
ltoes -14.392065
5
root 9.249270 17.016300 -33.220600 1.098204 1.634016 -0.103207
lowerback -2.015897 2.385513 3.765011
upperback -2.943432 3.244156 1.895990
thorax -1.791427 1.565079 -0.151641
lowerneck -17.139058 0.909983 1.701491
upperneck 38.803964 2.577155 -3.994792
head 17.614367 0.803540 -1.684552
rclavicle -0.000000 0.000000
rhumerus -35.395537 -10.684002 -72.796236
rradius 30.830165
rwrist -13.893088
rhand -6.593077 12.077000
rfingers 7.125020
rthumb 19.262907 -16.901319
lclavicle -0.000000 0.000000
lhumerus -59.766438 34.270109 50.336955
lradius 21.072111
lwrist -15.267108
lhand 1.847160 20.455294
lfingers 7.125020
lthumb 27.338871 48.313801
rfemur -9.894904 14.321076 27.676572
rtibia 23.298174
rfoot -18.985077 -20.077844
rtoes -3.058011
lfemur -36.236500 -0.770434 -18.717857
ltibia 41.214190
lfoot -18.761964 16.631437
ltoes -14.785705
6
root 9.246830 17.017700 -32.897400 0.986174 1.634016 -0.115318
lowerback -1.684382 2.482927 3.664716
upperback -2.664604 3.383987 1.766643
thorax -1.692857 1.642085 -0.129464
lowerneck -17.027177 0.825207 1.543865
upperneck 38.491665 2.502647 -3.989295
head 17.389202 0.751885 -1.653059
rclavicle -0.000000 0.000000
rhumerus -34.412674 -10.430385 -72.773680
rradius 31.721625
rwrist -15.025084
rhand -6.888256 12.232505
rfingers 7.125020
rthumb 18.976884 -16.778958
lclavicle -0.000000 0.000000
lhumerus -59.897488 34.647744 49.761898
lradius 21.052264
lwrist -15.242730
lhand 1.853871 20.279332
lfingers 7.125020
lthumb 27.344671 48.141639
rfemur -6.582930 14.150655 28.065996
rtibia 21.439893
rfoot -18.095676 -20.709060
rtoes -2.120484
lfemur -37.173985 -2.035217 -18.271041
ltibia 35.597262
lfoot -19.132384 16.894214
ltoes -15.187330
7
root 9.219480 17.016100 -32.563300 0.829092 1.634016 -0.148325
lowerback -1.340875 2.586386 3.580720
upperback -2.367885 3.543468 1.638842
thorax -1.588631 1.729087 -0.103017
lowerneck -16.902996 0.732787 1.345527
upperneck 38.169657 2.418839 -3.976199
head 17.157438 0.695287 -1.607116
rclavicle -0.000000 0.000000
rhumerus -33.369227 -10.164130 -72.741364
rradius 32.714726
rwrist -16.230935
rhand -7.199784 12.430015
rfingers 7.125020
rthumb 18.675154 -16.624379
lclavicle -0.000000 0.000000
lhumerus -59.956974 35.028990 49.210820
lradius 21.063776
lwrist -15.103527
lhand 1.840652 20.119330
lfingers 7.125020
lthumb 27.331363 47.988075
rfemur -3.045442 13.944803 28.561146
rtibia 18.791951
rfoot -16.929200 -21.338412
rtoes -1.003775
lfemur -38.198360 -3.539484 -17.668621
ltibia 29.227919
lfoot -19.569912 17.275924
ltoes -15.857617
8
root 9.210440 16.998300 -32.235300 0.931232 1.634016 -0.035016
lowerback -1.632726 2.678220 4.116984
upperback -2.374105 3.656033 1.642130
thorax -1.427910 1.780904 -0.272884
lowerneck -16.898786 0.695397 1.163599
upperneck 38.282869 2.293536 -3.641448
head 17.225305 0.665412 -1.444792
rclavicle -0.000000 0.000000
rhumerus -33.427769 -10.736224 -72.481889
rradius 32.016044
rwrist -15.160376
rhand -7.421944 12.567549
rfingers 7.125020
rthumb 18.461010 -16.513438
lclavicle -0.000000 0.000000
lhumerus -58.701552 34.676398 49.868191
lradius 22.165702
lwrist -12.425995
lhand 0.382176 20.541031
lfingers 7.125020
lthumb 25.932774 48.619387
rfemur 1.352363 13.342631 29.375921
rtibia 13.173327
rfoot -14.152161 -20.388498
rtoes -4.085648
lfemur -38.044392 -6.499601 -15.223397
ltibia 27.086502
lfoot -19.698700 18.066561
ltoes -13.757210
9
root 9.216220 16.950400 -31.922700 1.019723 1.634016 0.022548
lowerback -1.924231 2.754816 4.393927
upperback -2.390538 3.739086 1.624422
thorax -1.277194 1.819510 -0.429035
lowerneck -16.894125 0.659829 0.990541
upperneck 38.394939 2.172371 -3.322885
head 17.292645 0.637045 -1.289902
rclavicle -0.000000 0.000000
rhumerus -33.509068 -11.288896 -72.245885
rradius 31.366393
rwrist -14.125015
rhand -7.639063 12.693681
rfingers 7.125020
rthumb 18.251730 -16.412728
lclavicle -0.000000 0.000000
lhumerus -57.546792 34.357278 50.471007
lradius 23.164555
lwrist -10.048221
lhand -1.045394 20.948770
lfingers 7.125020
lthumb 24.563456 49.232616
rfemur 5.082659 12.761925 29.953583
rtibia 10.131362
rfoot -12.260292 -19.462640
rtoes -6.732347
lfemur -37.892628 -8.166349 -13.656707
ltibia 26.167169
lfoot -19.721605 18.415463
ltoes -12.275419
